<?xml version="1.0" encoding="utf-8" ?><svg xmlns="http://www.w3.org/2000/svg" xmlns:xlink="http://www.w3.org/1999/xlink" width="1024" height="1024" viewBox="0 0 1024 1024"><path fill="#9DC0F7" transform="scale(2 2)" d="M357.342 416.998C356.403 417.898 354.422 419.183 353.313 419.983C283.939 470.541 188.964 470.572 118.912 420.989C25.5173 354.883 5.64412 230.15 69.8496 137.378C133.021 46.1001 262.879 22.0445 352.552 88.7975C370.842 102.413 400.812 125.446 381.825 150.526C370.844 165.032 353.941 163.943 337.803 163.924L297.493 163.939C295.888 163.94 288.313 164.052 287.416 163.564C264.08 150.694 240.2 143.45 213.303 147.505C153.312 156.548 114.273 212.525 123.677 272.036C135.006 343.72 212.057 383.534 276.974 351.512C281.318 349.369 286.538 345.706 291.205 345.006C304.776 346.411 318.795 343.873 332.399 345.032C349.055 346.45 366.212 341.734 379.239 352.287C375.904 350.706 377.966 353.222 372.848 350.209C372.313 353.67 375.312 352.385 371.777 352.074C371.766 352.112 375.46 363.431 378.873 361.255C380.479 362.093 382.674 369.595 383.997 364.077L384.396 363.75C385.02 364.228 385.375 365.05 385.773 365.76C388.089 364.586 385.364 362.611 387.624 365.3C387.313 368.154 389.034 371.563 388.961 374.606C388.498 393.886 371.583 404.988 357.964 415.961C357.705 416.17 357.48 416.7 357.342 416.998Z"/><defs><linearGradient id="gradient_0" gradientUnits="userSpaceOnUse" x1="332.46439" y1="330.02054" x2="462.28244" y2="184.99446"><stop offset="0" stop-color="#92B1F9"/><stop offset="1" stop-color="#C2F5F7"/></linearGradient></defs><path fill="url(#gradient_0)" transform="scale(2 2)" d="M401.411 212.271C402.993 211.145 404.307 209.82 405.615 208.398C412.679 200.79 426.52 185.858 434.591 179.66L435.096 179.809C439.603 176.922 444.19 173.378 450.113 174.209L450.395 174.557C449.958 177.984 450.445 176.545 452.941 177.683L453.12 177.986C448.429 179.827 458.806 180.281 454.412 181.985C454.572 182.516 458.697 186.16 459.384 186.803C465.579 187.512 463.482 196.216 469.114 193.879C470.863 195.081 470.783 201.871 472.773 198.39C473.787 199.261 473.044 201.614 474.62 199.894L474.981 199.996C478.376 212.321 473.75 210.166 471.561 217.67L471.935 217.902C462.933 228.845 448.721 241.694 438.386 251.843C437.493 252.719 436.577 254.197 435.907 255.269C440.437 257.966 451.412 269.993 455.681 274.28C468.13 286.779 481.332 295.343 477.888 315.254C474.778 333.977 451.45 343.485 436.236 331.845C433.063 329.417 430.468 326.478 427.711 323.651L414.957 310.646C411.449 307.081 403.949 300.377 401.411 296.678C391.768 304.561 379.963 317.742 371.151 326.907C346.803 352.747 311.114 324.084 325.52 296.045C328.654 290.406 339.912 280.33 344.828 275.518L365.24 255.269C357.614 248.007 329.45 221.242 325.118 213.729C310.954 189.161 341.031 160.704 364.812 176.668C377.052 184.885 389.887 201.909 401.411 212.271Z"/><path fill="#B6E5F8" transform="scale(2 2)" d="M434.591 179.66C458.897 158.631 492.902 191.651 471.935 217.902L471.561 217.67C473.75 210.166 478.376 212.321 474.981 199.996L474.62 199.894C473.044 201.614 473.787 199.261 472.773 198.39C470.783 201.871 470.863 195.081 469.114 193.879C463.482 196.216 465.579 187.512 459.384 186.803C458.697 186.16 454.572 182.516 454.412 181.985C458.806 180.281 448.429 179.827 453.12 177.986L452.941 177.683C450.445 176.545 449.958 177.984 450.395 174.557L450.113 174.209C444.19 173.378 439.603 176.922 435.096 179.809L434.591 179.66Z"/><defs><linearGradient id="gradient_1" gradientUnits="userSpaceOnUse" x1="198.30247" y1="262.36667" x2="309.53241" y2="246.47833"><stop offset="0" stop-color="#88C1F7"/><stop offset="1" stop-color="#BFE8F7"/></linearGradient></defs><path fill="url(#gradient_1)" transform="scale(2 2)" d="M240.875 302.748C228.224 302.805 219.847 302.368 209.924 292.923C194.108 277.298 193.863 231.46 208.482 216.676C219.811 205.219 230.061 205.921 244.711 205.924L266.901 205.939C283.309 206.086 297.007 206.347 305.453 224.169C308.855 231.346 308.707 237.887 308.73 245.654L308.747 260.341C308.743 273.796 308.657 283.109 298.67 293.483C288.121 304.44 277.895 302.774 264.146 302.764L240.875 302.748Z"/><path fill="#B6E5F8" transform="scale(2 2)" d="M291.205 345.006C294.687 344.247 305.517 345.017 309.603 345.017L346.898 344.997C356.905 345.086 367.239 343.884 376.127 349.171C390.489 357.714 393.187 379.432 384.005 392.481C379.381 399.052 364.5 412.631 357.342 416.998C357.48 416.7 357.705 416.17 357.964 415.961C371.583 404.988 388.498 393.886 388.961 374.606C389.034 371.563 387.313 368.154 387.624 365.3C385.364 362.611 388.089 364.586 385.773 365.76C385.375 365.05 385.02 364.228 384.396 363.75L383.997 364.077C382.674 369.595 380.479 362.093 378.873 361.255C375.46 363.431 371.766 352.112 371.777 352.074C375.312 352.385 372.313 353.67 372.848 350.209C377.966 353.222 375.904 350.706 379.239 352.287C366.212 341.734 349.055 346.45 332.399 345.032C318.795 343.873 304.776 346.411 291.205 345.006Z"/></svg>